<svg width="304" height="451" viewBox="0 0 304 451" fill="none" xmlns="http://www.w3.org/2000/svg">
<rect width="304" height="451" fill="#1E1E1E"/>
<circle cx="154" cy="301" r="150" fill="black"/>
<path d="M141.5 0L282.229 208.5H0.770874L141.5 0Z" fill="#F00B0B"/>
<ellipse cx="86" cy="271.5" rx="13" ry="13.5" fill="white"/>
<ellipse cx="214" cy="271.5" rx="13" ry="13.5" fill="#D9D9D9"/>
<path d="M86 262L88.2451 268.91H95.5106L89.6327 273.18L91.8779 280.09L86 275.82L80.1221 280.09L82.3673 273.18L76.4894 268.91H83.7549L86 262Z" fill="#FEE500"/>
<path d="M214 262L216.919 269.946H226.364L218.723 274.857L221.641 282.804L214 277.893L206.359 282.804L209.277 274.857L201.636 269.946H211.081L214 262Z" fill="#FFE600"/>
<path d="M158 332L174.454 362.75H141.546L158 332Z" fill="#D9D9D9"/>
</svg>
